PathFileType	4	(X/Y/Z)	C:/Users/opensim2020/Desktop/walking_exp_matlab/subject02_walking12_straight_04.trc																																																																																																																												
DataRate	CameraRate	NumFrames	NumMarkers	Units	OrigDataRate	OrigDataStartFrame	OrigNumFrames																																																																																																																								
100	100	4	42	mm	100	1993	125																																																																																																																								
Frame#	Time	LFHD			RFHD			LBHD			RBHD			C7			T10			CLAV			STRN			RBAK			LSHO			LUPA			LELB			LFRM			LWRA			LWRB			LFIN			RSHO			RUPA			RELB			RFRM			RWRA			RWRB			RFIN			LASI			RASI			LPSI			RPSI			LTHI			LKNE			LTIB			LANK			LHEE			LTOE			RTHI			RKNE			RTIB			RANK			RHEE			RTOE			*39			*40			*41		
		X1	Y1	Z1	X2	Y2	Z2	X3	Y3	Z3	X4	Y4	Z4	X5	Y5	Z5	X6	Y6	Z6	X7	Y7	Z7	X8	Y8	Z8	X9	Y9	Z9	X10	Y10	Z10	X11	Y11	Z11	X12	Y12	Z12	X13	Y13	Z13	X14	Y14	Z14	X15	Y15	Z15	X16	Y16	Z16	X17	Y17	Z17	X18	Y18	Z18	X19	Y19	Z19	X20	Y20	Z20	X21	Y21	Z21	X22	Y22	Z22	X23	Y23	Z23	X24	Y24	Z24	X25	Y25	Z25	X26	Y26	Z26	X27	Y27	Z27	X28	Y28	Z28	X29	Y29	Z29	X30	Y30	Z30	X31	Y31	Z31	X32	Y32	Z32	X33	Y33	Z33	X34	Y34	Z34	X35	Y35	Z35	X36	Y36	Z36	X37	Y37	Z37	X38	Y38	Z38	X39	Y39	Z39	X40	Y40	Z40	X41	Y41	Z41	X42	Y42	Z42
																																																																																																																															
1	0	-756.48212	1751.99817	-1420.82837	-768.22803	1729.60071	-1279.19019	-877.09351	1664.41284	-1442.62561	-900.50488	1640.31738	-1303.698	-932.84155	1529.94604	-1367.52808	-992.92572	1256.63831	-1370.12805	-795.53253	1461.14233	-1386.16675	-746.53442	1287.33557	-1386.26721	-992.26709	1355.95422	-1306.02441	-870.40192	1509.64844	-1549.48743	-865.79138	1323.68677	-1659.57117	-846.42468	1190.14612	-1700.34106	-810.19653	1068.2373	-1736.8783	-730.78375	953.08582	-1727.76758	-775.33917	952.95874	-1762.56189	-741.8161	897.99292	-1778.05005	-847.25488	1488.80823	-1187.11462	-871.75592	1295.49329	-1106.77808	-857.47852	1147.39124	-1098.33606	-828.992	1029.49695	-1089.59473	-786.98328	903.92834	-1122.21558	-827.82568	899.14636	-1082.38782	-789.12207	837.45941	-1088.39453	-785.43036	995.57672	-1532.23779	-763.224	977.2464	-1281.65051	-983.60602	1044.23877	-1428.87109	-979.46136	1037.48767	-1313.15796	-880.38495	686.01337	-1577.96289	-928.66089	486.32199	-1550.8302	-997.18121	303.18195	-1553.62939	-1004.82001	77.0983	-1520.39917	-1041.19153	48.95161	-1470.55115	-848.66443	37.92975	-1534.45728	-745.88464	681.83575	-1216.70557	-680.08344	494.73282	-1262.11682	-770.19958	331.66962	-1264.89661	-845.32281	156.66129	-1307.29456	-889.63251	112.22962	-1368.01807	-720.10498	63.0301	-1292.16931	-872.4068	1803.88464	-1339.58069	-2845.89551	1034.27515	3357.27759	NaN	NaN	NaN
2	0.01	-743.81317	1750.71338	-1422.31421	-755.93292	1727.93152	-1280.73621	-864.44482	1663.38306	-1444.68091	-888.29968	1638.88025	-1305.86438	-920.48523	1528.79041	-1370.17566	-980.98145	1255.54797	-1372.63965	-783.30847	1459.6759	-1388.495	-734.75592	1286.01086	-1389.19849	-980.45538	1354.6532	-1309.19458	-857.43604	1509.00439	-1551.93494	-850.15051	1324.44727	-1663.66321	-826.61517	1191.98352	-1706.50513	-784.87585	1071.81262	-1743.85168	-699.49341	961.14154	-1736.53772	-744.72882	958.79248	-1770.52173	-708.76178	905.29016	-1786.2605	-835.15906	1486.6814	-1189.25537	-863.92645	1293.71326	-1109.40271	-851.95209	1145.98193	-1099.6908	-826.25922	1027.53979	-1089.91333	-787.20593	900.61273	-1120.5459	-829.07281	897.27246	-1081.08411	-791.29443	834.83215	-1085.98816	-775.11731	993.40308	-1535.17456	-750.50372	975.69617	-1284.61987	-972.43311	1043.28333	-1429.77063	-967.09009	1036.78687	-1314.02942	-873.42072	684.71729	-1579.20898	-924.21649	485.5878	-1551.09216	-994.83771	303.34732	-1553.39014	-1004.53162	77.41967	-1520.15015	-1041.1311	49.36967	-1470.3291	-848.66901	37.9431	-1534.65332	-730.39874	683.0365	-1218.35938	-663.8877	494.53711	-1264.92383	-743.76483	325.46472	-1268.76453	-806.76141	145.97081	-1312.28516	-847.98572	98.87666	-1373.22241	-675.43976	61.31577	-1297.36731	-859.71893	1802.38416	-1340.90381	-2845.1792	1034.27869	3360.25708	NaN	NaN	NaN
3	0.02	-731.06927	1749.25623	-1423.69458	-743.61676	1726.07007	-1282.24951	-851.80237	1662.19519	-1446.61011	-876.05023	1637.25659	-1307.99707	-908.09619	1527.354	-1372.75842	-968.97986	1254.2157	-1375.02527	-770.89203	1458.06421	-1390.755	-722.8186	1284.27612	-1391.80066	-968.51343	1353.1217	-1312.10522	-844.40442	1508.16577	-1554.23035	-834.74689	1325.078	-1667.60901	-807.19458	1193.91125	-1712.43713	-760.08887	1075.81311	-1750.69482	-669.08661	969.58508	-1744.13477	-714.51434	964.89325	-1777.73389	-676.19684	913.07684	-1793.87622	-823.31567	1484.53882	-1191.69312	-855.14697	1291.97644	-1111.97534	-845.82062	1144.44128	-1101.47473	-823.42194	1025.73535	-1090.1156	-787.28802	897.43054	-1119.10132	-829.37927	895.59949	-1079.63354	-793.22028	832.41168	-1083.54224	-764.49945	991.21918	-1537.83972	-737.61737	973.71631	-1286.99377	-961.05524	1042.07507	-1430.73853	-954.47638	1035.7262	-1315.04846	-866.04999	683.11304	-1580.24475	-919.85358	484.92249	-1551.33008	-992.87976	303.76666	-1553.1803	-1004.22186	77.5388	-1519.73462	-1040.87903	49.69846	-1469.85938	-848.62408	38.03032	-1534.86279	-715.51392	683.62329	-1220.28918	-648.36237	493.79111	-1267.52014	-717.41949	319.25629	-1271.9386	-767.58826	135.93297	-1316.2478	-805.13733	86.67104	-1378.02759	-630.55194	60.63837	-1301.93396	-847.18384	1800.87317	-1342.5791	-2845.27222	1034.18909	3360.33911	NaN	NaN	NaN
4	0.03	-718.21887	1747.56873	-1424.91321	-731.39111	1724.13538	-1283.85181	-839.11456	1660.78394	-1448.53833	-863.75037	1635.43005	-1310.00134	-895.6825	1525.69116	-1375.14844	-956.80206	1252.65002	-1377.04797	-758.48633	1456.21777	-1392.89441	-710.72736	1282.21948	-1394.37317	-956.46729	1351.3949	-1314.8302	-831.18604	1507.08386	-1556.15979	-819.39935	1325.51501	-1671.27393	-788.04321	1195.68787	-1717.98596	-735.63287	1079.86658	-1756.974	-639.13959	978.41272	-1751.62366	-684.85132	971.27728	-1784.35046	-644.21594	921.40509	-1800.93188	-811.36804	1482.10266	-1193.86853	-846.18042	1290.08923	-1114.51563	-839.84991	1142.97522	-1102.94812	-820.328	1024.05347	-1090.19495	-787.16406	894.67426	-1117.42505	-830.14392	894.16327	-1078.97302	-794.96454	830.21082	-1081.13428	-753.76532	989.10455	-1540.23926	-725.01392	971.5368	-1289.44165	-949.38953	1040.52002	-1431.75537	-941.78009	1034.25928	-1316.14587	-858.68524	681.67804	-1581.50378	-915.55017	484.27707	-1551.61218	-990.67908	303.73721	-1552.35718	-1003.92419	77.84157	-1519.33838	-1040.41675	49.87949	-1469.08972	-848.4599	38.00412	-1535.00122	-700.87268	683.50317	-1221.95911	-633.31287	492.31604	-1269.85034	-690.87958	312.99945	-1274.70288	-727.75934	126.49067	-1319.6449	-762.14667	75.50157	-1381.15869	-585.5542	60.83438	-1306.04224	-834.71234	1799.30481	-1344.24084	-2845.14941	1034.25146	3360.36426	NaN	NaN	NaN
